<svg version="1.1" id="fajr_svg" xmlns="http://www.w3.org/2000/svg" xmlns:xlink="http://www.w3.org/1999/xlink" x="0px" y="0px"
	 width="150px" height="150px" viewBox="0 0 150 150" xml:space="preserve">
<path fill-rule="evenodd" clip-rule="evenodd" fill="#888888" d="M6.799,68.687c0.699-1.238,0.564-2.648,0.749-3.977
	c0.897-6.419,2.706-12.571,5.352-18.469c4.472-9.965,10.949-18.42,19.387-25.361c7.735-6.363,16.428-10.896,26.078-13.582
	c1.952-0.543,4.001,0.215,5.092,1.817c1.139,1.673,1.138,3.625-0.241,5.356c-3.513,4.411-6.333,9.206-8.164,14.541
	c-2.803,8.171-3.75,16.535-2.459,25.123c1.394,9.271,4.984,17.585,10.841,24.89c5.597,6.982,12.581,12.15,20.884,15.498
	c6.985,2.816,14.24,4.066,21.778,3.736c10.307-0.452,19.56-3.857,27.92-9.816c0.91-0.649,1.766-1.375,2.659-2.049
	c3.188-2.402,6.174-1.662,7.761,1.916c0,0.807,0,1.613,0,2.42c-0.492,0.225-0.441,0.726-0.55,1.131
	c-4.368,16.278-13.151,29.589-26.983,39.301c-17.398,12.217-36.601,15.966-57.278,10.992c-27.401-6.59-47.996-29.554-52.109-57.641
	C7.293,83,7.386,81.434,6.799,79.977C6.799,76.214,6.799,72.45,6.799,68.687z M131.229,101.385
	c-25.496,10.56-49.353,8.329-69.447-11.195C41.673,70.651,38.681,46.853,48.5,21.163C29.192,30.858,13.379,53.88,16.78,81.881
	c3.134,25.809,23.107,47.948,50.606,52.291C93.699,138.326,118.934,125.01,131.229,101.385z"/>
</svg>
