<svg version="1.1" id="isha_svg" xmlns="http://www.w3.org/2000/svg" xmlns:xlink="http://www.w3.org/1999/xlink" x="0px" y="0px"
	 width="150px" height="150px" viewBox="0 0 150 150" xml:space="preserve">
<path fill-rule="evenodd" clip-rule="evenodd" fill="#888888" d="M45.524,6.799c2.653,0.685,4.025,2.61,5.063,4.989
	c2.159,4.948,4.441,9.843,6.637,14.776c0.343,0.771,0.737,1.139,1.646,1.229c5.832,0.582,11.659,1.222,17.48,1.905
	c2.552,0.3,4.475,1.585,5.247,4.135c0.752,2.484-0.064,4.57-1.942,6.283c-4.266,3.894-8.522,7.799-12.816,11.662
	c-0.705,0.634-0.945,1.175-0.727,2.172c1.234,5.63,2.38,11.279,3.516,16.93c0.503,2.506,0.006,4.77-2.155,6.347
	c-2.137,1.559-4.426,1.472-6.68,0.196c-5.015-2.838-10.031-5.672-15.012-8.569c-0.878-0.511-1.493-0.56-2.405-0.028
	c-4.938,2.881-9.922,5.682-14.901,8.491c-2.898,1.636-5.673,1.314-7.69-0.864c-1.549-1.673-1.693-3.671-1.263-5.776
	c1.156-5.646,2.298-11.297,3.518-16.93c0.182-0.84-0.012-1.287-0.609-1.824c-4.326-3.896-8.63-7.813-12.917-11.751
	c-2.86-2.627-3.031-6.343-0.448-8.853c1.112-1.08,2.513-1.492,4.006-1.657c5.826-0.644,11.65-1.299,17.48-1.9
	c0.797-0.082,1.015-0.545,1.28-1.133c2.203-4.88,4.485-9.727,6.612-14.64c1.031-2.381,2.33-4.366,4.929-5.19
	C44.091,6.799,44.808,6.799,45.524,6.799z"/>
<path fill-rule="evenodd" clip-rule="evenodd" fill="#888888" d="M59.234,144.436c-1.453-0.824-2.788-1.72-3.071-3.584
	c-0.133-0.877,0.022-1.702,0.187-2.524c0.796-3.989,1.609-7.975,2.482-11.948c0.159-0.724,0.017-1.144-0.511-1.62
	c-3.193-2.88-6.386-5.763-9.522-8.704c-2.495-2.341-1.962-6.104,0.987-7.304c1.046-0.426,2.188-0.449,3.295-0.575
	c3.603-0.408,7.207-0.807,10.815-1.161c0.854-0.085,1.307-0.435,1.657-1.233c1.688-3.842,3.416-7.666,5.191-11.469
	c1.455-3.116,4.924-3.835,7.136-1.535c0.535,0.557,0.871,1.242,1.185,1.935c1.637,3.62,3.316,7.222,4.875,10.877
	c0.438,1.026,1.044,1.363,2.081,1.466c4.054,0.402,8.097,0.9,12.148,1.324c1.908,0.199,3.347,1.063,3.992,2.882
	c0.669,1.882,0.061,3.513-1.388,4.839c-3.139,2.875-6.267,5.762-9.442,8.594c-0.595,0.529-0.721,1.018-0.566,1.747
	c0.814,3.849,1.597,7.703,2.388,11.556c0.742,3.615,0.123,4.937-3.003,6.439c-0.717,0-1.434,0-2.15,0
	c-4.046-2.32-8.105-4.62-12.128-6.982c-0.789-0.464-1.367-0.443-2.158-0.003c-4.194,2.337-8.229,4.963-12.597,6.985
	C60.489,144.436,59.862,144.436,59.234,144.436z"/>
<path fill-rule="evenodd" clip-rule="evenodd" fill="#888888" d="M104.088,82.457c0.518-2.561,0.933-5.687,1.817-8.673
	c0.761-2.566,0.302-4.271-1.894-5.879c-2.156-1.578-3.997-3.585-5.994-5.384c-1.246-1.122-2.032-2.412-1.533-4.144
	c0.507-1.764,1.791-2.572,3.563-2.764c3.516-0.383,7.023-0.834,10.543-1.171c0.87-0.083,1.312-0.345,1.668-1.173
	c1.342-3.116,2.827-6.168,4.174-9.283c0.733-1.696,1.783-2.965,3.723-2.984c2.016-0.019,3.079,1.317,3.832,3.041
	c1.376,3.149,2.839,6.261,4.224,9.407c0.288,0.653,0.642,0.901,1.375,0.974c3.651,0.361,7.294,0.818,10.941,1.223
	c1.628,0.181,2.815,0.994,3.313,2.535c0.513,1.586,0.019,2.986-1.227,4.117c-2.62,2.379-5.201,4.802-7.863,7.132
	c-0.755,0.661-0.891,1.276-0.687,2.204c0.758,3.449,1.427,6.916,2.159,10.371c0.34,1.602-0.06,2.958-1.34,3.95
	c-1.347,1.044-2.829,0.98-4.275,0.167c-3.114-1.754-6.228-3.51-9.314-5.313c-0.764-0.445-1.357-0.504-2.16-0.029
	c-3.075,1.82-6.181,3.594-9.313,5.315C107.021,87.634,104.048,85.986,104.088,82.457z"/>
</svg>
